<?xml version="1.0" encoding="UTF-8"?>
<svg xmlns="http://www.w3.org/2000/svg" xmlns:xlink="http://www.w3.org/1999/xlink" viewBox="0 0 512 512">
  <defs>
    <clipPath id="clippath">
      <path d="M256,512C114.615,512,0,397.385,0,256S114.615,0,256,0v512Z" fill="none"/>
    </clipPath>
    <radialGradient id="radial-gradient" cx="-592.281" cy="759.157" fx="-592.281" fy="759.157" r="28.159" gradientTransform="translate(2425.717 3902.192) rotate(21.995) scale(6.25 -3.452)" gradientUnits="userSpaceOnUse">
      <stop offset="0" stop-color="#e3dda6"/>
      <stop offset="1" stop-color="#e3dda6" stop-opacity="0"/>
    </radialGradient>
    <radialGradient id="radial-gradient-2" cx="-626.08" cy="755.164" fx="-632.927" fy="755.164" r="12.391" gradientTransform="translate(-6907.608 4002.786) rotate(91.943) scale(6.25 -9.141)" gradientUnits="userSpaceOnUse">
      <stop offset=".611" stop-color="#e3dda6"/>
      <stop offset=".966" stop-color="#e3dda6" stop-opacity=".087"/>
      <stop offset="1" stop-color="#e3dda6" stop-opacity="0"/>
    </radialGradient>
  </defs>
  <g id="Earth">
    <path d="M256,0c141.385,0,256,114.615,256,256s-114.615,256-256,256" fill="#6fc979"/>
    <g id="Layer_6" data-name="Layer 6">
      <path d="M256,512C114.615,512,0,397.385,0,256S114.615,0,256,0v512Z" fill="#00aeef"/>
    </g>
  </g>
  <g id="Lines">
    <line x1="256" y1="64" x2="512" y2="64" fill="none" stroke="#fff" stroke-miterlimit="10" stroke-width="5"/>
    <line x1="256" y1="128" x2="512" y2="128" fill="none" stroke="#fff" stroke-miterlimit="10" stroke-width="5"/>
    <line x1="256" y1="192" x2="512" y2="192" fill="none" stroke="#fff" stroke-miterlimit="10" stroke-width="5"/>
    <line x1="256" y1="255.71" x2="512" y2="255.71" fill="none" stroke="#fff" stroke-miterlimit="10" stroke-width="5"/>
    <line x1="256" y1="320" x2="512" y2="320" fill="none" stroke="#fff" stroke-miterlimit="10" stroke-width="5"/>
    <line x1="256" y1="384" x2="512" y2="384" fill="none" stroke="#fff" stroke-miterlimit="10" stroke-width="5"/>
    <line x1="256" y1="448" x2="512" y2="448" fill="none" stroke="#fff" stroke-miterlimit="10" stroke-width="5"/>
    <line x1="384.129" x2="384.129" y2="512" fill="none" stroke="#fff" stroke-miterlimit="10" stroke-width="5"/>
  </g>
  <g id="Layer_5" data-name="Layer 5">
    <g clip-path="url(#clippath)">
      <path d="M-96.021,133.001C-63.698,53.96,12.621-17.488,126.371-15.976l.012,5.45s10.059,3.835,15.06,4.631,10.285,1.622,11.993,1.227c1.748-.39,9.885-8.382,9.885-8.382,28.772,4.164,54.379,12.233,76.996,23.29,0,0-.095,9.669-1.624,11.505s-2.099,9.789-1.773,12.954c.327,3.165,1.678,14.201.118,20.711-1.561,6.509-1.225,16.344-5.762,14.985s-7.01-18.529-9.771-22.146,2.502-11.334.782-16.39-2.821-7.405-8.053-5.948-7.618,11.258-12.89,12.711-9.452-3.407-12.309-3.699-14.604,3.63-17.493,10.003-2.522,11.535,3.364,12.828c5.89,1.253,5.544-2.117,8.753-.894s3.263,9.443,4.295,12.476c1.036,2.993,3.133,6.339,2.79,12.078-.383,5.735-3.971,14.965-7.166,17.973s-5.626,11.665-10.058,13.651c-4.432,1.986-9.569.119-13.447,1.064-3.879.945-3.09,6.353-6.924,8.848-3.834,2.495-7.45,3.264-7.45,3.264,0,0,7.494,9.428,6.658,15.605-.831,6.137-.836,10.162-8.659,12.696s-6.046-1.717-5.236-7.652.721-9.035.721-9.035c0,0-4.914-2.048-5.886-3.286-.975-1.198-1.258-2.813-1.258-2.813,0,0-6.464-2.003-7.772-2.34s-3.607.282-4.472-2.003c-.86-2.325,2.557-5.513,1.118-6.555s-10.882,4.214-12.949,6.93c-2.063,2.676.965,5.67,2.137,7.335,1.172,1.665,5.513.564,5.513,2.557s-1.515,6.067-2.979,7.259-3.662,3.204-3.618,4.754c.045,1.55,6.982,8.075,7.625,10.133s4.23,1.978,3.883,7.758c-.383,5.735-2.522,9.542-5.269,12.149-2.707,2.61-5.655,5.196-6.345,5.573s-5.882,7.409-9.454,9.728-11.461,7.489-17.156,8.696-15.13-.775-20.043,1.935c-4.913,2.71-4.789,8.253-8.236,10.544-3.447,2.291-5.425,2.942-7.318-.017s-.856-5.943.547-6.938c1.407-1.035,3.994-2.072,1.595-4.066-2.439-1.998-4.628-.474-7.558,1.138s-7.217,3.369-6.209,7.823c1.004,4.495,6.952,10.349,8.8,13.751,1.848,3.402,2.868,6.149,2.422,9.316-.486,3.163.325,3.978-2.944,6.124s-3.638,1.376-8.989,3.594c-5.351,2.218-9.303,5.473-11.915,3.579-2.612-1.894-2.896-4.688-2.896-4.688,0,0-6.463-9.567-8.311-11.383-1.852-1.775-6.964-3.478-7.659-2.248s-1.167,7.038-.831,9.715c.296,2.674.753,6.95.605,8.398s4.126,5.383,6.593,7.1c2.468,1.716,4.807,1.508,6.165,4.128,1.318,2.615,3.403,8.075,4.349,11.547s4.761,9.108,4.761,9.108c0,0,8.653,9.628,9.316,11.892s4.655,4.583,3.311,7.781c-1.348,3.237-3.048,5.544-7.08,4.806-4.036-.698-9.979-5.413-11.876-6.745-1.893-1.373-6.597-3.887-6.597-3.887,0,0-10.484-13.191-11.756-15.07s-8.072-8.146-9.125-10.571-6.864-8.429-7.693-10.262.577-4.048,2.527-3.239c1.955.769,9.624,8.874,11.327,10.512,1.743,1.642,7.292,4.243,7.292,4.243,0,0-4.227-8.769-5.843-11.252-1.657-2.487-5.323-6.4-5.576-13.868s-.137-14.166-.415-15.821-2.986-10.96-3.965-12.524-6.317.533-7.929-2.397.811-15.085.811-15.085c0,0-7.274-17.539-9.229-18.308s-8.504-2.334-11.268-1.153-12.199,7.942-13.606,8.978c-1.407,1.035-9.894,6.877-11.578,7.437-1.644.564-4.097,1.492-4.097,1.492,0,0-2.867,9.344-3.695,10.276-.827.932-2.144,8.239-3.418,10.752s-3.208,7.114-6.536,6.651c-3.324-.503-2.767-2.764-3.105-9.793-.298-7.025-2.704-16.502-2.691-23.78.017-7.318.888-27.358.444-28.583-.444-1.225-4.214-.147-4.021-3.624s3.256-15.526,2.113-19.059c-1.451-4.5-7.298-8.961-7.298-8.961h0Z" fill="#7add8a"/>
      <path d="M-96.021,133.001C-63.698,53.96,12.621-17.488,126.371-15.976c0,0,11.558,32.902,12.763,34.245,7.047,7.837,35.377,20.292,32.488,26.666s-2.522,11.535,3.364,12.828c5.89,1.253,5.544-2.117,8.753-.894s3.263,9.443,4.295,12.476c1.036,2.993,3.133,6.339,2.79,12.078-.383,5.735-3.971,14.965-7.166,17.973s-5.626,11.665-10.058,13.651c-4.432,1.986-9.569.119-13.447,1.064-3.879.945-3.09,6.353-6.924,8.848-3.834,2.495-7.45,3.264-7.45,3.264,0,0,7.494,9.428,6.658,15.605-.831,6.137-.836,10.162-8.659,12.696-7.823,2.534-6.046-1.717-5.236-7.652s.721-9.035.721-9.035c0,0-4.914-2.048-5.886-3.286-.975-1.198-1.258-2.813-1.258-2.813,0,0-6.464-2.003-7.772-2.34s-3.607.282-4.472-2.003c-.86-2.325,2.557-5.513,1.118-6.555s-10.882,4.214-12.949,6.93c-2.063,2.676.965,5.67,2.137,7.335,1.172,1.665,5.513.564,5.513,2.557s-1.515,6.067-2.979,7.259-3.662,3.204-3.618,4.754c.045,1.55,6.982,8.075,7.625,10.133s4.23,1.978,3.883,7.758c-.383,5.735-2.522,9.542-5.269,12.149-2.707,2.61-5.655,5.196-6.345,5.573s-5.882,7.409-9.454,9.728-11.461,7.489-17.156,8.696-15.13-.775-20.043,1.935c-4.913,2.71-4.789,8.253-8.236,10.544-3.447,2.291-5.425,2.942-7.318-.017s-.856-5.943.547-6.938c1.407-1.035,3.994-2.072,1.595-4.066-2.439-1.998-4.628-.474-7.558,1.138s-7.217,3.369-6.209,7.823c1.004,4.495,6.952,10.349,8.8,13.751,1.848,3.402,2.868,6.149,2.422,9.316-.486,3.163.325,3.978-2.944,6.124s-3.638,1.376-8.989,3.594c-5.351,2.218-9.303,5.473-11.915,3.579-2.612-1.894-2.896-4.688-2.896-4.688,0,0-6.463-9.567-8.311-11.383-1.852-1.775-6.964-3.478-7.659-2.248s-1.167,7.038-.831,9.715c.296,2.674.753,6.95.605,8.398s4.126,5.383,6.593,7.1c2.468,1.716,4.807,1.508,6.165,4.128,1.318,2.615,3.403,8.075,4.349,11.547s4.761,9.108,4.761,9.108c0,0,8.653,9.628,9.316,11.892s4.655,4.583,3.311,7.781c-1.348,3.237-3.048,5.544-7.08,4.806-4.036-.698-9.979-5.413-11.876-6.745-1.893-1.373-6.597-3.887-6.597-3.887,0,0-10.484-13.191-11.756-15.07s-8.072-8.146-9.125-10.571-6.864-8.429-7.693-10.262.577-4.048,2.527-3.239c1.955.769,9.624,8.874,11.327,10.512,1.743,1.642,7.292,4.243,7.292,4.243,0,0-4.227-8.769-5.843-11.252-1.657-2.487-5.323-6.4-5.576-13.868s-.137-14.166-.415-15.821-2.986-10.96-3.965-12.524-6.317.533-7.929-2.397.811-15.085.811-15.085c0,0-7.274-17.539-9.229-18.308s-8.504-2.334-11.268-1.153-12.199,7.942-13.606,8.978c-1.407,1.035-9.894,6.877-11.578,7.437-1.644.564-4.097,1.492-4.097,1.492,0,0-2.867,9.344-3.695,10.276-.827.932-2.144,8.239-3.418,10.752s-3.208,7.114-6.536,6.651c-3.324-.503-2.767-2.764-3.105-9.793-.298-7.025-2.704-16.502-2.691-23.78.017-7.318.888-27.358.444-28.583-.444-1.225-4.214-.147-4.021-3.624s3.256-15.526,2.113-19.059c-1.531-4.508-7.378-8.969-7.378-8.969h0Z" fill="url(#radial-gradient)"/>
      <path d="M94.215,42.749c-2.526-.746-5.001,4.368-9.403,6.846-4.442,2.473-8.781,2.355-9.143,4.31s3.042,9.217,6.607,9.744,9.235-2.024,12.276-4.722c4.203-3.718,6.171-14.212-.337-16.179Z" fill="#159ff7"/>
      <path d="M193.925,61.042c-1.043.259-2.384,2.237-2.617,3.717-.365,2.769,4.021,10.781,4.049,12.492s.016,8.989-.019,11.71c-.052,3.289-.05,6.054,1.374,6.444,2.333.645,5.906-3.666,6.784-5.894.919-2.224,3.221-10.813,2.762-12.69-.499-1.881-.984-4.696-3.199-7.688-2.649-3.524-6.924-8.638-9.135-8.092h0Z" fill="#7add8a"/>
      <path d="M198.457,100.22c-2.231.341-2.766,3.58-3.979,9.475-1.169,5.858-1.496,15.422-1.781,18.199s-.763,4.68-.763,4.68c0,0-2.969,6.365-3.269,7.311s-5.921,5.006-7.735,6.447c-1.774,1.445-6.665,4.727-6.665,4.727,0,0-5.817-1.571-8.511-1.074-10.072,1.857-11.057,6.717-11.057,6.717,0,0-2.999,1.889-3.6,4.186-1.096,3.954,2.587,7.706,6.459,7.615,3.993-.079,9.277-2.833,12.232-3.1,2.915-.271,7.973-1.218,12.276-4.722s9.598-9.55,10.936-10.308,4.987-1.442,6.145-7.992c1.158-6.551,4.429-21.425,4.242-22.379-.183-.995,6.448-3.407,6.806-4.916s2.066-5.888.646-6.318-5.576-1.546-7.099-2.556c-3.344-2.294-2.932-6.318-5.284-5.99h0Z" fill="#7add8a"/>
      <path d="M97.666,214.507c-.982.062-1.52,6.514-1.794,9.983-.074.724-2.023,2.68-.378,8.46,1.286,4.523,4.435,7.53,4.435,7.53,0,0-2.569,12.791.339,17.358.874,1.391,6.037.618,7.43,2.102s2.879,3.263,4.781,4.149c1.862.882,7.689,1.559,8.69.116,1.002-1.443-1.235-5.819-1.265-6.717.006-.853,2.236-2.78,1.787-5.144s-9.786-17.633-11.66-18.394c-1.874-.761-3.137.452-4.987-2.137-1.284-1.758-2.248-4.662-1.614-8.868.674-4.201-.805-8.825-5.765-8.438h0Z" fill="#7add8a"/>
      <path d="M77.391,240.573c-2.267,1.883-5.673,10.928-6.364,12.118s-7.325,6.408-9.904,7.77c-2.41,1.299-8.173,5.955-8.881,7.306-.712,1.391-5.332-.749-8.069-.622-2.327.087-6.931,3.357-7.74,4.901-.849,1.54.223,4.577,1.54,7.599s4.554,6.362,5.594,7.729,4.293,4.546,5.273,5.297c2.078,1.555,7.621-.562,11.337.875s6.984,3.683,8.168,3.235c3.505-1.268,6.585-8.72,9.258-13.774,3.845-7.374,4.501-9.015,4.501-9.015,0,0,2.551-1.488,4.091-4.217s.926-7.062,2.518-13.081c1.592-6.018,2.913-8.201,3.971-11.387.989-2.908,1.312-5.274-.219-6.204s-10.005-2.772-15.074,1.467h0Z" fill="#7add8a"/>
      <path d="M84.254,297.109c-.405-.814-2.205-3.886-.931-9.977,1.31-6.047,3.726-9.785,3.965-10.533.279-.744,8.155-4.981,10.851-4.705s4.46,1.717,4.693,2.229,1.031,1.447,2.469,1.31c1.478-.133,2.88-2.715,2.697-3.709-.183-.995.558-2.668,1.813-2.62,1.256.047,1.185,2.724.809,5.207-.336,2.487-.736,3.219-2.927,3.97s-8.565,1.442-10.41,3.571c-1.844,2.129-1.337,7.508-1.424,8.353s3.45,3.24,3.514,5.402c.083,2.367-1.108,4.075-8.296,3.584-5.136-.281-6.822-2.081-6.822-2.081h0Z" fill="#7add8a"/>
      <path d="M121.318,278.25s-4.551,1.161-5.378,1.686c-.822.485-.884,2.675-.161,3.562,1.048,1.286,6.028.698,8.491,1.275,2.148.464,4.308,1.213,7.005,1.489,2.374.243,3.924-3.38,3.267-4.505-.658-1.125-3.98-9.191-2.987-10.553.993-1.362,2.697-3.709,2.732-4.844.037-1.948-4.987-2.137-6.643-1.452-1.616.689-3.588,4.065-4.932,5.677-1.34,1.571-1.394,7.665-1.394,7.665h0Z" fill="#7add8a"/>
      <path d="M42.72,302.416c-.717.252-3.758,4.536-2.619,6.523,1.143,1.947,2.612,1.894,14.745,3.339,12.133,1.445,15.286,1.239,16.047.95,1.015-.384,9.858.236,13.936-1.868,4.078-2.104,9.458-2.611,11.076-2.527,1.618.084,4.781.57,5.905-.087s4.713-1.551,4.224-4.326-2.777-.284-13.169-.859c-8.774-.491-25.295,1.601-27.718,1.434-3.151-.2-21.122-3.015-22.427-2.579h0Z" fill="#7add8a"/>
      <path d="M116.373,298.362c-3.863,2.777-6.064,4.422-4.728,6.47.983,1.524,4.908-.677,7.315-2.342,2.411-1.705,7.013-3.756,5.384-6.118-1.565-2.193-5.112-.116-7.971,1.99Z" fill="#7add8a"/>
      <path d="M141.864,269.413c-.509.599-.202,3.965-.007,4.838s3.999,2.646,6.021,5.537c2.018,2.931,1.734,5.708,2.373,6.221.635.553,10.898,1.196,13.068,1.052s5.692.013,10.131.345c4.395.368,10.841,1.353,11.903,1.706,1.569.567,3.474,1.819,3.905,3.571.247,1.164.556,3.31-.521,4.298s-2.944.553-3.343,2.464-.572,3.601,2.141,3.716c2.717.075,11.28,1.439,13.381,1.572s6.523,2.619,8.936,1.687,8.808-1.823,9.094-3.827-1.274-2.652-.223-4.577c1.249-2.271,3.538-1.59,5.905-.087,2.368,1.503,8.77,7.688,10.685,8.047s6.485-.19,6.855-1.82c.366-1.589-1.699-3.264-3.027-3.4s-3.745-1.156-4.452-1.797-5.768-8.805-6.627-9.95.044-5.201-.168-5.914-5.173-1.505-5.86-2.348-9.542-9.679-12.977-11.087c-3.434-1.409-30.646-2.932-32.081-2.428-1.398.548-10.078,11.453-12.894,10.758-2.816-.695-1.353-8.637-4.777-10.94-3.424-2.302-16.24.941-17.443,2.363h0Z" fill="#7add8a"/>
      <path d="M179.653,435.453c-1.115.171-5.101-1.417-6.404-.208-1.299,1.168-2.704,4.969-2.616,6.889s1.758,5.873,4.747,6.464c4.184.835,11.061-5.171,11.209-8.206.188-3.031-3.385-5.47-6.936-4.939Z" fill="#7add8a"/>
      <path d="M229.615,435.604c-2.268.703-3.298-6.315-5.927-6.462-1.904-.073-8.088,3.93-13.263,6.817-5.348,2.991-8.425,3.652-9.641,7.187-.344.981.043,3.949,4.614,4.986s22.345-6.945,25.742-8.753c3.398-1.808,16.027-7.998,16.754-10.73.723-2.691-2.485-9.892-2.573-11.812-.088-1.92-.93-6.805-2.512-6.845-1.626-.004-3.011,1.603-3.048,5.544-.037,1.948-.598,4.656-.757,5.412-.638,2.659-1.77,2.991-2.878,3.487-1.406.629-3.226.931-4.339,3.46-1.509,3.221.725,6.825-2.171,7.708h0Z" fill="#7add8a"/>
      <path d="M176.985,325.587c-.494,2.837,3.245,6.838,4.702,8.492,2.586,2.948,6.232,6.656,10.196,7.265,3.964.609,8.085-.718,9.176-2.64,1.087-1.881,7.195-11.504,7.467-14.16s2.718-9.075,3.1-10.825c.382-1.75,1.776-2.258,3.99-2.032s2.721,1.62,3.802,4.171,1.981,6.872,3.238,9.684c1.258,2.813,3.792,8.643,3.792,8.643,0,0-1.364,6.977-1.083,10.584s8.696,15.163,8.359,18.463-1.449,5.423-.147,7.793c1.303,2.37,4.507,4.04,4.814,5.413s1.096,6.781.115,9.609c-.936,2.791-3.986,10.735-9.575,15.287s-13.946,9.919-13.946,9.919c0,0-9.407,10.465-13.241,12.96-3.834,2.495-6.821,4.263-8.629,4.851-1.47.46-6.188,4.043-17.612,2.427-11.424-1.616-13.829-6.335-15.684-8.07-1.815-1.731-6.275-1.862-7.193-3.623-1.499-2.837.453-4.427.303-7.329-.093-1.473-1.453-5.273-7.118-6.747-5.664-1.474-21.964-1.149-26.023-.426-4.095.679-7.916,4.639-11.525,3.741-4.562-1.117-9.437.824-16.676-.364-7.44-1.209-12.037-6.355-9.421-8.08,1.177-.774,3.371-2.339,2.536-5.312-.794-2.969-7.513-20.369-9.409-25.687s-4.435-11.108-3.776-15.555c1.999-13.174,7.708-12.143,9.102-12.651,1.394-.508,2.837.494,5.182-.568,2.349-1.102,11.5-3.5,13.03-5.336s2.275-7.128,3.98-8.295c1.665-1.172,16.829-11.86,19.868-13.339s5.625-.522,6.333,1.299,3.823,3.97,6.992,3.603c6.619-.705,5.796-8.557,9.056-10.216,3.301-1.655,14.091-2.584,22.789-.556s12.888,2.417,13.541,7.16-4.403,10.448-4.403,10.448h0Z" fill="#7add8a"/>
      <path d="M208.191,402.547s29.38-13.708,30.361-16.535c.936-2.791.192-8.235-.115-9.609-.307-1.373-3.471-3.039-4.814-5.413-1.303-2.37-.191-4.493.147-7.793s-8.077-14.856-8.359-18.463c-.282-3.607,1.083-10.584,1.083-10.584,0,0-2.535-5.831-3.792-8.643-1.258-2.813-2.157-7.134-3.238-9.684s-1.589-3.944-3.802-4.171-3.607.282-3.99,2.032c-.382,1.75-2.828,8.169-3.1,10.825s-6.38,12.279-7.467,14.16-5.252,3.245-9.176,2.64c-3.964-.609-7.566-4.353-10.196-7.265-1.457-1.654-5.196-5.655-4.702-8.492,0,0,5.057-5.704,4.408-10.488s-4.839-5.172-13.541-7.16-19.488-1.099-22.789.556c-3.301,1.655-2.477,9.506-9.056,10.216-3.165.327-6.288-1.741-6.992-3.603s-3.294-2.777-6.333-1.299-18.202,12.167-19.868,13.339c-1.665,1.172-2.446,6.419-3.98,8.295s-10.685,4.275-13.03,5.336c-2.349,1.102-3.788.06-5.182.568-1.394.508-7.063-.519-9.102,12.651-.699,4.442,1.84,10.233,3.776,15.555,1.896,5.318,8.615,22.719,9.409,25.687s-1.359,4.538-2.536,5.312c-2.616,1.725,1.981,6.872,9.421,8.08,7.239,1.188,12.114-.753,16.676.364,3.609.898,7.426-3.022,11.525-3.741,4.095-.679,20.399-1.044,26.023.426s7.024,5.273,7.118,6.747c.15,2.903,27.723-1.881,27.723-1.881l27.491-7.964h0Z" fill="url(#radial-gradient-2)"/>
    </g>
  </g>
</svg>